<svg width="604" height="551" viewBox="0 0 604 551" fill="none" xmlns="http://www.w3.org/2000/svg">
<g opacity="0.3">
<path opacity="0.3" d="M603.934 521.146V512.437L601.544 511.095C600.864 515.197 596.026 517.919 591.965 518.482L564.432 534.598L552.423 538.933L514.048 519.124L514.941 518.619C511.658 517.083 509.889 513.584 508.121 510.376L505.537 511.912L504.002 512.359V521.282C504.104 522.296 504.469 523.266 505.062 524.095C505.656 524.924 506.456 525.583 507.383 526.006L545.875 548.206C548.407 549.481 551.202 550.146 554.036 550.146C556.871 550.146 559.666 549.481 562.197 548.206L600.631 526.006C601.542 525.588 602.329 524.943 602.918 524.133C603.507 523.323 603.877 522.374 603.993 521.379C604.002 521.302 604.002 521.223 603.993 521.146H603.934Z" fill="url(#paint0_linear_1_535)"/>
<path opacity="0.3" d="M591.964 518.482L564.431 534.598L553.977 538.37V550.15C556.819 550.209 559.628 549.54 562.138 548.206L600.572 526.006C601.483 525.588 602.27 524.943 602.859 524.133C603.448 523.323 603.818 522.374 603.934 521.379C603.944 521.302 603.944 521.223 603.934 521.146V512.437L601.738 511.212H601.505C600.767 515.255 595.987 517.841 591.964 518.482Z" fill="#0F054C"/>
<path opacity="0.3" d="M545.876 539.342L507.442 517.141C502.934 514.556 502.934 510.318 507.442 507.713L545.876 485.512C548.407 484.237 551.202 483.573 554.037 483.573C556.871 483.573 559.666 484.237 562.198 485.512L600.632 507.713C605.12 510.318 605.12 514.556 600.632 517.141L562.198 539.342C559.669 540.626 556.873 541.295 554.037 541.295C551.201 541.295 548.405 540.626 545.876 539.342Z" fill="url(#paint1_linear_1_535)"/>
<g opacity="0.3">
<path opacity="0.3" d="M545.876 539.342L507.442 517.141C502.934 514.556 502.934 510.318 507.442 507.713L545.876 485.512C548.407 484.237 551.202 483.573 554.037 483.573C556.871 483.573 559.666 484.237 562.198 485.512L600.632 507.713C605.12 510.318 605.12 514.556 600.632 517.141L562.198 539.342C559.669 540.626 556.873 541.295 554.037 541.295C551.201 541.295 548.405 540.626 545.876 539.342Z" fill="#0F054C"/>
</g>
</g>
<path d="M553.977 511.29C551.454 511.335 548.96 510.74 546.73 509.56L508.296 487.359C507.388 487.04 506.602 486.447 506.045 485.662C505.489 484.877 505.19 483.938 505.19 482.975C505.19 482.013 505.489 481.074 506.045 480.289C506.602 479.504 507.388 478.91 508.296 478.592L546.73 456.391C548.975 455.26 551.454 454.67 553.968 454.67C556.482 454.67 558.96 455.26 561.206 456.391L599.659 478.592C600.567 478.91 601.353 479.504 601.909 480.289C602.466 481.074 602.764 482.013 602.764 482.975C602.764 483.938 602.466 484.877 601.909 485.662C601.353 486.447 600.567 487.04 599.659 487.359L561.225 509.56C558.994 510.74 556.501 511.335 553.977 511.29ZM553.977 455.341C551.571 455.293 549.191 455.855 547.06 456.974L508.626 479.175C507.828 479.44 507.134 479.95 506.642 480.632C506.15 481.314 505.885 482.134 505.885 482.975C505.885 483.817 506.15 484.636 506.642 485.319C507.134 486.001 507.828 486.511 508.626 486.776L547.06 508.976C549.202 510.059 551.568 510.624 553.968 510.624C556.367 510.624 558.734 510.059 560.875 508.976L599.309 486.737C600.107 486.472 600.802 485.962 601.294 485.28C601.786 484.598 602.051 483.778 602.051 482.936C602.051 482.095 601.786 481.275 601.294 480.593C600.802 479.911 600.107 479.401 599.309 479.136L560.875 456.935C558.747 455.832 556.374 455.283 553.977 455.341Z" fill="#42E8E0"/>
<path opacity="0.4" d="M603.934 474.451V461.29L601.544 459.949C600.864 464.07 596.026 466.772 591.965 467.336L564.432 483.452L552.423 487.787L514.048 467.977L514.941 467.472C511.658 465.936 509.889 462.437 508.121 459.229L505.537 460.765L504.002 461.212V474.587C504.104 475.601 504.469 476.571 505.062 477.4C505.656 478.229 506.456 478.888 507.383 479.311L545.875 501.511C548.404 502.795 551.2 503.465 554.036 503.465C556.872 503.465 559.668 502.795 562.197 501.511L600.631 479.311C601.542 478.893 602.329 478.248 602.918 477.438C603.507 476.628 603.877 475.679 603.993 474.684C604.002 474.607 604.002 474.528 603.993 474.451H603.934Z" fill="#42E8E0"/>
<path d="M603.934 462.748V454.039L601.544 452.697C600.864 456.819 596.026 459.521 591.965 460.085L564.432 476.2L552.423 480.535L514.048 460.726L514.941 460.221C511.658 458.685 509.889 455.186 508.121 451.978L505.537 453.533L504.002 453.961V462.884C504.104 463.898 504.469 464.868 505.062 465.697C505.656 466.526 506.456 467.185 507.383 467.608L545.875 489.808C548.404 491.092 551.2 491.762 554.036 491.762C556.872 491.762 559.668 491.092 562.197 489.808L600.631 467.608C601.542 467.19 602.329 466.545 602.918 465.735C603.507 464.925 603.877 463.976 603.993 462.981C604.002 462.904 604.002 462.825 603.993 462.748H603.934Z" fill="url(#paint2_linear_1_535)"/>
<path opacity="0.3" d="M591.964 460.084L564.431 476.2L553.977 479.971V491.752C556.819 491.81 559.628 491.141 562.138 489.808L600.572 467.607C601.483 467.19 602.27 466.545 602.859 465.735C603.448 464.924 603.818 463.976 603.934 462.981C603.944 462.903 603.944 462.825 603.934 462.747V454.038L601.738 452.813H601.505C600.767 456.857 595.987 459.52 591.964 460.084Z" fill="#0F054C"/>
<path d="M545.876 480.904L507.442 458.704C502.934 456.099 502.934 451.861 507.442 449.275L545.876 427.133C548.405 425.849 551.201 425.18 554.037 425.18C556.873 425.18 559.669 425.849 562.198 427.133L600.632 449.334C605.12 451.919 605.12 456.157 600.632 458.762L562.139 480.904C559.615 482.17 556.831 482.829 554.008 482.829C551.184 482.829 548.4 482.17 545.876 480.904Z" fill="url(#paint3_linear_1_535)"/>
<path d="M600.572 458.763L562.138 480.905C559.606 482.18 556.811 482.844 553.977 482.844C551.143 482.844 548.348 482.18 545.816 480.905L507.382 458.705C506.543 458.309 505.806 457.727 505.227 457.002C504.647 456.278 504.241 455.43 504.04 454.525C503.768 456.469 504.895 458.413 507.382 459.774L545.874 482.033C548.403 483.317 551.199 483.986 554.035 483.986C556.871 483.986 559.667 483.317 562.196 482.033L600.63 459.832C601.656 459.405 602.526 458.672 603.121 457.733C603.715 456.794 604.006 455.694 603.953 454.583C603.746 455.492 603.333 456.341 602.747 457.066C602.161 457.79 601.417 458.371 600.572 458.763Z" fill="white"/>
<path d="M534.677 453L447.253 400.683L419.458 416.718H419.135L365 384.81L365.323 384L419.458 415.746L447.253 399.711L447.899 400.035L535 452.19L534.677 453Z" fill="url(#paint4_linear_1_535)"/>
<g opacity="0.3">
<path opacity="0.3" d="M99.9996 520.204V511.494L97.5889 510.153C96.9085 514.274 92.068 516.977 88.0245 517.54L60.4585 533.656L48.4446 537.991L10.0505 518.182L10.9448 517.676C7.65942 516.141 5.89036 512.641 4.12132 509.434L1.53582 510.989L4.05312e-05 511.417V520.34C0.1018 521.354 0.467642 522.324 1.06115 523.153C1.65466 523.982 2.45508 524.641 3.38259 525.064L41.835 547.264C44.3651 548.548 47.1624 549.218 49.9998 549.218C52.8371 549.218 55.6345 548.548 58.1646 547.264L96.6169 525.064C97.5314 524.649 98.3232 524.005 98.9158 523.194C99.5084 522.384 99.8817 521.434 99.9996 520.437C99.9996 520.437 99.9996 520.281 99.9996 520.204Z" fill="url(#paint5_linear_1_535)"/>
<path opacity="0.3" d="M88.024 517.578L60.458 533.694L49.9993 537.466V549.246C52.8421 549.305 55.6526 548.636 58.164 547.302L96.6164 525.102C97.5308 524.687 98.3227 524.043 98.9153 523.233C99.5079 522.422 99.8812 521.472 99.999 520.475C99.999 520.475 99.999 520.319 99.999 520.242V511.533L97.7828 510.308H97.5496C96.8108 514.313 92.0286 516.976 88.024 517.578Z" fill="#0F054C"/>
<path opacity="0.3" d="M41.8349 538.419L3.38257 516.218C-1.12752 513.613 -1.12752 509.375 3.38257 506.79L41.8349 484.531C44.3651 483.247 47.1624 482.577 49.9998 482.577C52.8371 482.577 55.6344 483.247 58.1646 484.531L96.6169 506.731C101.108 509.317 101.108 513.555 96.6169 516.16L58.1646 538.419C55.6317 539.694 52.8355 540.358 49.9998 540.358C47.1641 540.358 44.3678 539.694 41.8349 538.419Z" fill="url(#paint6_linear_1_535)"/>
<g opacity="0.3">
<path opacity="0.3" d="M41.8354 538.419L3.38298 516.218C-1.12711 513.613 -1.12711 509.375 3.38298 506.79L41.8354 484.531C44.3655 483.247 47.1628 482.577 50.0002 482.577C52.8375 482.577 55.6348 483.247 58.165 484.531L96.6173 506.731C101.108 509.317 101.108 513.555 96.6173 516.16L58.165 538.419C55.6321 539.694 52.8359 540.358 50.0002 540.358C47.1645 540.358 44.3682 539.694 41.8354 538.419Z" fill="#0F054C"/>
</g>
</g>
<path d="M49.9998 506.11C47.4743 506.165 44.9771 505.569 42.7486 504.379L4.29623 482.179C3.3948 481.856 2.61517 481.262 2.06396 480.479C1.51275 479.696 1.2169 478.762 1.2169 477.805C1.2169 476.847 1.51275 475.913 2.06396 475.13C2.61517 474.347 3.3948 473.754 4.29623 473.431L42.7486 451.23C44.9955 450.09 47.4799 449.495 49.9998 449.495C52.5196 449.495 55.0039 450.09 57.2508 451.23L95.7032 473.431C96.6047 473.754 97.3843 474.347 97.9356 475.13C98.4868 475.913 98.7826 476.847 98.7826 477.805C98.7826 478.762 98.4868 479.696 97.9356 480.479C97.3843 481.262 96.6047 481.856 95.7032 482.179L57.2508 504.379C55.0224 505.569 52.5252 506.165 49.9998 506.11ZM43.0791 503.796C45.2218 504.879 47.5891 505.444 49.99 505.444C52.3909 505.444 54.7582 504.879 56.9009 503.796L95.3533 481.596C96.2123 481.4 96.9793 480.918 97.5288 480.229C98.0782 479.541 98.3774 478.686 98.3774 477.805C98.3774 476.924 98.0782 476.069 97.5288 475.38C96.9793 474.691 96.2123 474.21 95.3533 474.014L56.9009 451.814C54.761 450.721 52.3926 450.152 49.99 450.152C47.5874 450.152 45.2191 450.721 43.0791 451.814L4.62674 474.014C3.76775 474.21 3.00072 474.691 2.4513 475.38C1.90189 476.069 1.60264 476.924 1.60264 477.805C1.60264 478.686 1.90189 479.541 2.4513 480.229C3.00072 480.918 3.76775 481.4 4.62674 481.596L43.0791 503.796Z" fill="#42E8E0"/>
<path opacity="0.4" d="M99.9995 469.29V456.11L97.5889 454.768C96.9085 458.89 92.068 461.592 88.0244 462.155L60.4585 478.271L48.4445 482.587L10.0505 462.778L10.9447 462.272C7.65938 460.736 5.89032 457.237 4.12128 454.03L1.53578 455.585L0 456.012V469.407C0.0933683 470.421 0.456185 471.392 1.05091 472.219C1.64563 473.046 2.45061 473.7 3.38255 474.111L41.8349 496.312C44.365 497.596 47.1624 498.265 49.9998 498.265C52.8371 498.265 55.6344 497.596 58.1645 496.312L96.6169 474.111C97.5313 473.696 98.3232 473.052 98.9158 472.242C99.5084 471.431 99.8817 470.482 99.9995 469.484C99.9995 469.484 99.9995 469.329 99.9995 469.251V469.29Z" fill="#42E8E0"/>
<path d="M99.9995 457.568V448.859L97.5889 447.517C96.9085 451.638 92.068 454.341 88.0244 454.904L60.4585 471.02L48.4445 475.355L10.0505 455.546L10.9447 455.04C7.65938 453.505 5.89032 450.006 4.12128 446.817L1.53578 448.353L0 448.781V457.723C0.105005 458.734 0.472354 459.7 1.06568 460.525C1.659 461.35 2.45768 462.006 3.38255 462.428L41.8349 484.628C44.365 485.912 47.1624 486.582 49.9998 486.582C52.8371 486.582 55.6344 485.912 58.1645 484.628L96.6169 462.428C97.5313 462.013 98.3232 461.369 98.9158 460.559C99.5084 459.748 99.8817 458.798 99.9995 457.801C99.9995 457.801 99.9995 457.645 99.9995 457.568Z" fill="url(#paint7_linear_1_535)"/>
<path d="M41.8349 475.783L3.38257 453.582C-1.12752 450.977 -1.12752 446.739 3.38257 444.154L41.8349 421.953C44.3651 420.669 47.1624 420 49.9998 420C52.8371 420 55.6344 420.669 58.1646 421.953L96.6169 444.154C101.108 446.759 101.108 450.977 96.6169 453.582L58.1646 475.783C55.6344 477.067 52.8371 477.736 49.9998 477.736C47.1624 477.736 44.3651 477.067 41.8349 475.783Z" fill="url(#paint8_linear_1_535)"/>
<path d="M50.0001 471.739C47.7192 471.79 45.4633 471.255 43.4488 470.184L13.414 452.843C12.5927 452.552 11.8818 452.013 11.3791 451.301C10.8764 450.589 10.6066 449.739 10.6066 448.868C10.6066 447.996 10.8764 447.146 11.3791 446.434C11.8818 445.723 12.5927 445.184 13.414 444.892L43.4488 427.552C45.4778 426.518 47.7228 425.978 50.0001 425.978C52.2775 425.978 54.5225 426.518 56.5514 427.552L86.5863 444.892C87.4075 445.184 88.1183 445.723 88.621 446.434C89.1237 447.146 89.3936 447.996 89.3936 448.868C89.3936 449.739 89.1237 450.589 88.621 451.301C88.1183 452.013 87.4075 452.552 86.5863 452.843L56.5514 470.184C54.5369 471.255 52.281 471.79 50.0001 471.739ZM43.7793 469.601C45.7036 470.579 47.8317 471.089 49.9904 471.089C52.1491 471.089 54.2772 470.579 56.2015 469.601L86.2558 452.26C86.9769 452.032 87.6066 451.581 88.0536 450.971C88.5007 450.361 88.7416 449.624 88.7416 448.868C88.7416 448.112 88.5007 447.375 88.0536 446.765C87.6066 446.155 86.9769 445.703 86.2558 445.476L56.2015 428.154C54.2772 427.176 52.1491 426.666 49.9904 426.666C47.8317 426.666 45.7036 427.176 43.7793 428.154L13.7445 445.495C13.0694 445.789 12.4848 446.257 12.0509 446.851C11.6169 447.446 11.3493 448.145 11.2755 448.878C11.3518 449.612 11.6202 450.312 12.0537 450.91C12.4871 451.507 13.0703 451.979 13.7445 452.28L43.7793 469.601Z" fill="#5351AF"/>
<path d="M96.6166 453.583L58.1642 475.783C55.6341 477.067 52.8368 477.737 49.9994 477.737C47.1621 477.737 44.3647 477.067 41.8346 475.783L3.38222 453.583C2.54314 453.187 1.80565 452.605 1.22613 451.88C0.646599 451.156 0.240377 450.309 0.0385328 449.403C-0.0059178 450.517 0.290322 451.618 0.887729 452.559C1.48514 453.501 2.35532 454.237 3.38222 454.671L41.8346 476.872C44.3674 478.147 47.1637 478.811 49.9994 478.811C52.8351 478.811 55.6314 478.147 58.1642 476.872L96.6166 454.671C97.6432 454.239 98.5124 453.502 99.1069 452.56C99.7013 451.618 99.9924 450.516 99.9409 449.403C99.7425 450.307 99.3397 451.154 98.7635 451.878C98.1873 452.603 97.4529 453.186 96.6166 453.583Z" fill="white"/>
<path d="M54.7094 468.441L141.839 418.308L169.723 433.352L170.046 433.35L224.002 402.768L223.674 402.002L169.718 432.43L141.834 417.386L141.189 417.697L54.3817 467.675L54.7094 468.441Z" fill="url(#paint9_linear_1_535)"/>
<g opacity="0.3">
<path opacity="0.3" d="M602.903 167.896V159.187L600.495 157.845C599.815 161.947 594.979 164.669 590.94 165.232L563.4 181.329L551.398 185.683L513.041 165.874L513.934 165.349C510.652 163.833 508.885 160.314 507.117 157.126L504.534 158.662L503 159.089V168.032C503.091 169.047 503.453 170.019 504.047 170.846C504.642 171.674 505.447 172.326 506.379 172.736L544.795 194.937C547.322 196.221 550.117 196.89 552.952 196.89C555.786 196.89 558.581 196.221 561.109 194.937L599.524 172.736C600.438 172.322 601.229 171.678 601.821 170.867C602.413 170.057 602.786 169.107 602.903 168.11V167.896Z" fill="url(#paint10_linear_1_535)"/>
<path opacity="0.3" d="M590.939 165.232L563.4 181.329L552.951 185.119V196.9C555.791 196.959 558.599 196.289 561.108 194.956L599.523 172.756C600.437 172.341 601.228 171.697 601.82 170.886C602.412 170.076 602.785 169.126 602.903 168.129V167.915V159.206L600.708 157.981H600.475C599.698 162.005 594.94 164.669 590.939 165.232Z" fill="#0F054C"/>
<path opacity="0.3" d="M544.794 186.091L506.476 163.891C501.97 161.286 501.97 157.067 506.476 154.462L544.794 132.184C547.322 130.9 550.117 130.231 552.951 130.231C555.786 130.231 558.581 130.9 561.108 132.184L599.524 154.385C604.029 156.99 604.029 161.208 599.524 163.813L561.108 186.014C558.587 187.31 555.795 187.992 552.961 188.006C550.126 188.019 547.328 187.363 544.794 186.091Z" fill="url(#paint11_linear_1_535)"/>
<g opacity="0.3">
<path opacity="0.3" d="M544.794 186.091L506.476 163.891C501.97 161.286 501.97 157.067 506.476 154.462L544.794 132.184C547.322 130.9 550.117 130.231 552.951 130.231C555.786 130.231 558.581 130.9 561.108 132.184L599.524 154.385C604.029 156.99 604.029 161.208 599.524 163.813L561.108 186.014C558.587 187.31 555.795 187.992 552.961 188.006C550.126 188.019 547.328 187.363 544.794 186.091Z" fill="#0F054C"/>
</g>
</g>
<path d="M552.953 159.498C550.431 159.543 547.938 158.948 545.708 157.768L507.293 135.567C506.386 135.248 505.6 134.655 505.044 133.87C504.488 133.085 504.189 132.146 504.189 131.183C504.189 130.221 504.488 129.282 505.044 128.497C505.6 127.712 506.386 127.118 507.293 126.8L545.708 104.599C547.956 103.467 550.437 102.878 552.953 102.878C555.468 102.878 557.949 103.467 560.197 104.599L598.612 126.8C599.519 127.118 600.305 127.712 600.861 128.497C601.417 129.282 601.716 130.221 601.716 131.183C601.716 132.146 601.417 133.085 600.861 133.87C600.305 134.655 599.519 135.248 598.612 135.567L560.197 157.768C557.967 158.948 555.475 159.543 552.953 159.498ZM552.953 103.53C550.552 103.488 548.18 104.057 546.058 105.182L507.623 127.383C506.826 127.648 506.132 128.158 505.64 128.84C505.148 129.522 504.883 130.342 504.883 131.183C504.883 132.025 505.148 132.844 505.64 133.527C506.132 134.209 506.826 134.719 507.623 134.984L546.058 157.184C548.199 158.267 550.564 158.832 552.962 158.832C555.361 158.832 557.726 158.267 559.867 157.184L598.282 134.984C599.08 134.719 599.773 134.209 600.265 133.527C600.757 132.844 601.022 132.025 601.022 131.183C601.022 130.342 600.757 129.522 600.265 128.84C599.773 128.158 599.08 127.648 598.282 127.383L559.867 105.182C557.738 104.057 555.36 103.488 552.953 103.53Z" fill="#42E8E0"/>
<path opacity="0.4" d="M602.903 122.659V109.498L600.495 108.156C599.815 112.258 594.979 114.98 590.94 115.544L563.4 131.659L551.398 136.072L513.041 116.263L513.934 115.757C510.652 114.222 508.885 110.722 507.117 107.515L504.534 109.051L503 109.498V122.873C503.124 123.883 503.51 124.844 504.12 125.659C504.73 126.474 505.542 127.115 506.476 127.519L544.795 149.68C547.322 150.964 550.117 151.634 552.952 151.634C555.786 151.634 558.581 150.964 561.109 149.68L599.524 127.48C600.438 127.065 601.229 126.421 601.821 125.611C602.413 124.8 602.786 123.85 602.903 122.853V122.62V122.659Z" fill="#42E8E0"/>
<path d="M602.903 110.956V102.247L600.495 100.905C599.815 105.007 594.979 107.729 590.94 108.292L563.4 124.408L551.398 128.743L513.041 108.856L513.934 108.351C510.652 106.815 508.885 103.316 507.117 100.108L504.534 101.644L503 102.091V111.014C503.102 112.028 503.467 112.998 504.06 113.827C504.653 114.656 505.453 115.315 506.379 115.738L544.795 138.016C547.325 139.291 550.119 139.956 552.952 139.956C555.785 139.956 558.578 139.291 561.109 138.016L599.524 115.816C600.438 115.401 601.229 114.757 601.821 113.947C602.413 113.136 602.786 112.186 602.903 111.189V110.956Z" fill="url(#paint12_linear_1_535)"/>
<path opacity="0.3" d="M590.939 108.293L563.4 124.409L552.951 128.18V139.961C555.791 140.019 558.599 139.35 561.108 138.017L599.523 115.816C600.437 115.402 601.228 114.758 601.82 113.947C602.412 113.137 602.785 112.187 602.903 111.19V110.956V102.247L600.708 101.022H600.475C599.698 105.066 594.94 107.729 590.939 108.293Z" fill="#0F054C"/>
<path d="M513.934 108.428L550.349 87.4718C551.16 87.0648 552.054 86.8529 552.961 86.8529C553.868 86.8529 554.763 87.0648 555.573 87.4718L591.328 108.137L590.94 108.37C594.979 107.806 599.815 105.084 600.495 100.983L560.351 78.6266L548.698 75.5356L539.182 81.1344L507.137 100.263C508.885 103.393 510.652 106.912 513.934 108.428Z" fill="url(#paint13_linear_1_535)"/>
<path opacity="0.3" d="M552.951 76.605L548.679 75.458L539.162 81.0567L507.117 100.186C508.884 103.393 510.652 106.893 513.934 108.428L550.349 87.4719C551.145 87.0327 552.043 86.8114 552.951 86.8304V76.605Z" fill="#0F054C"/>
<path d="M544.794 129.152L506.476 106.912C501.97 104.327 501.97 100.089 506.476 97.4839L544.891 75.2833C547.422 74.0082 550.215 73.344 553.048 73.344C555.881 73.344 558.675 74.0082 561.205 75.2833L599.621 97.4839C604.127 100.089 604.127 104.327 599.621 106.912L561.205 129.113C558.668 130.419 555.858 131.104 553.005 131.11C550.152 131.117 547.338 130.446 544.794 129.152ZM555.573 78.6076C554.762 78.2006 553.868 77.9886 552.961 77.9886C552.054 77.9886 551.16 78.2006 550.349 78.6076L511.933 100.808C511.613 100.912 511.335 101.115 511.137 101.387C510.939 101.66 510.832 101.988 510.832 102.324C510.832 102.661 510.939 102.989 511.137 103.262C511.335 103.534 511.613 103.737 511.933 103.841L550.349 126.041C551.16 126.448 552.054 126.66 552.961 126.66C553.868 126.66 554.762 126.448 555.573 126.041L593.989 103.841C594.3 103.728 594.568 103.521 594.758 103.25C594.948 102.979 595.05 102.656 595.05 102.324C595.05 101.993 594.948 101.67 594.758 101.399C594.568 101.128 594.3 100.921 593.989 100.808L555.573 78.6076Z" fill="url(#paint14_linear_1_535)"/>
<path d="M593.988 100.73L555.573 78.5296C554.762 78.1226 553.867 77.9106 552.96 77.9106C552.054 77.9106 551.159 78.1226 550.348 78.5296L511.933 100.73C510.962 101.294 510.651 102.071 510.962 102.791C511.181 102.377 511.519 102.038 511.933 101.819L550.348 79.696C551.159 79.289 552.054 79.0771 552.96 79.0771C553.867 79.0771 554.762 79.289 555.573 79.696L593.988 101.897C594.397 102.116 594.729 102.455 594.94 102.869C595.25 102.071 594.94 101.294 593.988 100.73Z" fill="white"/>
<path d="M599.525 106.912L561.11 129.112C558.582 130.397 555.787 131.066 552.953 131.066C550.118 131.066 547.323 130.397 544.796 129.112L506.477 106.912C505.639 106.522 504.901 105.944 504.322 105.222C503.743 104.501 503.337 103.655 503.137 102.752C503.094 103.863 503.391 104.961 503.988 105.899C504.584 106.837 505.453 107.57 506.477 108.001L544.796 130.24C547.323 131.524 550.118 132.193 552.953 132.193C555.787 132.193 558.582 131.524 561.11 130.24L599.525 108.039C600.549 107.609 601.418 106.876 602.015 105.938C602.612 105 602.909 103.902 602.866 102.791C602.66 103.687 602.252 104.525 601.673 105.239C601.094 105.953 600.359 106.526 599.525 106.912Z" fill="white"/>
<path d="M545.882 128.53L507.466 106.329C503.582 104.074 503.582 100.497 507.466 98.1643L545.882 75.9638C548.07 74.8444 550.493 74.2607 552.951 74.2607C555.409 74.2607 557.832 74.8444 560.02 75.9638L598.436 98.1643C602.32 100.419 602.32 103.996 598.436 106.329L560.02 128.53C557.832 129.649 555.409 130.233 552.951 130.233C550.493 130.233 548.07 129.649 545.882 128.53ZM556.641 77.9856C555.499 77.4004 554.234 77.0952 552.951 77.0952C551.668 77.0952 550.403 77.4004 549.261 77.9856L510.846 100.108C510.398 100.258 510.008 100.546 509.732 100.929C509.456 101.313 509.308 101.774 509.308 102.247C509.308 102.72 509.456 103.18 509.732 103.564C510.008 103.948 510.398 104.235 510.846 104.385L549.203 126.586C550.348 127.16 551.612 127.46 552.893 127.46C554.174 127.46 555.438 127.16 556.583 126.586L595.018 104.385C595.466 104.235 595.855 103.948 596.131 103.564C596.407 103.18 596.555 102.72 596.555 102.247C596.555 101.774 596.407 101.313 596.131 100.929C595.855 100.546 595.466 100.258 595.018 100.108L556.641 77.9856Z" fill="url(#paint15_linear_1_535)"/>
<path opacity="0.4" d="M555.574 78.5296C554.764 78.1226 553.869 77.9106 552.962 77.9106C552.055 77.9106 551.161 78.1226 550.35 78.5296L511.935 100.73C511.614 100.834 511.336 101.037 511.138 101.309C510.94 101.582 510.833 101.91 510.833 102.246C510.833 102.583 510.94 102.911 511.138 103.184C511.336 103.456 511.614 103.659 511.935 103.763L550.35 125.963C551.161 126.37 552.055 126.582 552.962 126.582C553.869 126.582 554.764 126.37 555.574 125.963L593.99 103.763C594.301 103.65 594.569 103.443 594.759 103.172C594.949 102.901 595.051 102.578 595.051 102.246C595.051 101.915 594.949 101.592 594.759 101.321C594.569 101.05 594.301 100.843 593.99 100.73L555.574 78.5296Z" fill="#42E8E0"/>
<path d="M526.594 146.78L437.574 196.333L437.564 228.421L437.402 228.701L382.701 259.629L382.162 258.944L436.722 227.935L436.733 195.847L437.337 195.449L526.054 146.095L526.594 146.78Z" fill="url(#paint16_linear_1_535)"/>
<path opacity="0.5" d="M471.023 287.296L486.086 296.015V330.83L471.023 322.126V287.296Z" fill="#758EF5"/>
<path opacity="0.2" d="M455.961 296.015L471.024 304.719V322.126L455.961 313.423V296.015Z" fill="#758EF5"/>
<path opacity="0.5" d="M440.897 235.059L455.96 243.778V313.423L440.897 304.719V235.059Z" fill="#758EF5"/>
<path opacity="0.2" d="M425.819 208.948L440.897 217.652V304.719L425.819 296.015V208.948Z" fill="#758EF5"/>
<path opacity="0.5" d="M410.757 217.652L425.819 226.355V296.015L410.757 287.296V217.652Z" fill="#758EF5"/>
<path opacity="0.2" d="M395.693 156.711L410.756 165.415V287.296L395.693 278.592V156.711Z" fill="#758EF5"/>
<path opacity="0.5" d="M380.632 165.415L395.694 174.119V278.593L380.632 269.889V165.415Z" fill="#758EF5"/>
<path opacity="0.2" d="M365.569 174.118L380.632 182.822V269.888L365.569 261.185V174.118Z" fill="#758EF5"/>
<path opacity="0.5" d="M350.492 130.585L365.57 139.304V261.186L350.492 252.482V130.585Z" fill="#758EF5"/>
<path opacity="0.2" d="M335.429 87.0669L350.491 95.7705V252.482L335.429 243.762V87.0669Z" fill="#758EF5"/>
<path opacity="0.5" d="M320.366 95.7708L335.429 104.474V243.763L320.366 235.059V95.7708Z" fill="#758EF5"/>
<path opacity="0.2" d="M305.304 52.2368L320.366 60.9404V235.059L305.304 226.355V52.2368Z" fill="#758EF5"/>
<path opacity="0.5" d="M290.225 43.5334L305.303 52.237V226.355L290.225 217.652V43.5334Z" fill="#758EF5"/>
<path opacity="0.2" d="M275.163 0L290.226 8.70358V217.652L275.163 208.948V0Z" fill="#758EF5"/>
<path opacity="0.4" d="M289.96 460C366.176 460 427.962 424.296 427.962 380.254C427.962 336.211 366.176 300.507 289.96 300.507C213.744 300.507 151.959 336.211 151.959 380.254C151.959 424.296 213.744 460 289.96 460Z" fill="#0F054C"/>
<path d="M289.961 428.294C376.708 428.294 447.031 387.657 447.031 337.528C447.031 287.399 376.708 246.762 289.961 246.762C203.213 246.762 132.891 287.399 132.891 337.528C132.891 387.657 203.213 428.294 289.961 428.294Z" fill="url(#paint17_linear_1_535)"/>
<path opacity="0.48" d="M447.047 307.641H443.165C436.86 291.477 422.823 276.106 401.036 263.533C339.699 228.081 240.239 228.081 178.979 263.533C158.404 275.422 144.817 289.783 137.969 304.968H133.046V325.095C131.82 349.201 147.131 373.54 178.979 391.926C240.317 427.362 339.776 427.362 401.114 391.926C431.782 374.192 447.125 350.972 447.125 327.737L447.047 307.641Z" fill="url(#paint18_linear_1_535)"/>
<path opacity="0.48" d="M443.165 299.838C442.948 299.279 442.715 298.719 442.466 298.16V284.933H434.236V283.985C432.086 281.098 429.752 278.351 427.249 275.764V284.933H422.59V271.21C420.406 269.22 418.066 267.272 415.571 265.366V284.965H410.913V261.884C408.661 260.33 406.254 258.776 403.863 257.315V284.887H399.204V254.58C396.906 253.285 394.551 252.041 392.139 250.85V284.887H387.48V248.689C385.151 247.653 382.791 246.617 380.399 245.581V284.887H375.741V253.103H368.644V284.933H363.986V261.884H356.858V284.98H352.2V270.619H345.057V284.98H340.491V279.369H333.395V284.98H246.653V279.369H239.479V284.98H234.913V270.619H227.801V284.98H223.143V261.884H216.015V284.98H211.357V253.103H204.26V284.933H199.602V245.596C197.21 246.57 194.85 247.606 192.521 248.705V284.98H187.862V250.865C185.455 252.062 183.095 253.29 180.797 254.58V284.933H176.138V257.315C173.685 258.786 171.335 260.304 169.088 261.869V284.933H164.43V265.288C161.93 267.184 159.6 269.143 157.411 271.132V284.933H152.752V275.608C150.258 278.199 147.925 280.939 145.764 283.814V284.856H137.534V297.056H134.041V330.798C135.403 337.098 137.756 343.142 141.013 348.703V327.674H145.764V355.914C147.916 358.791 150.25 361.527 152.752 364.105V327.674H157.411V368.674C159.6 370.648 161.945 372.607 164.43 374.503V327.674H169.088V377.922C171.345 379.476 173.695 380.999 176.138 382.491V327.674H180.797V385.18C183.095 386.455 185.45 387.693 187.862 388.895V327.674H192.521V391.133C194.85 392.169 197.21 393.205 199.602 394.241V327.721H204.26V396.106C206.589 396.992 208.919 397.831 211.357 398.64V327.674H216.015V400.007C218.376 400.738 220.674 401.422 223.143 402.074V327.674H227.801V403.318C230.162 403.893 232.537 404.452 234.944 404.965V327.721H239.51V405.913C241.886 406.38 244.277 406.799 246.684 407.203V327.674H251.234V407.856C253.61 408.214 256.016 408.524 258.423 408.82V327.674H262.942V409.317C265.334 409.55 267.74 409.752 270.163 409.939V327.674H274.651V410.234C277.073 410.358 279.48 410.467 281.902 410.545V327.674H286.375V410.638C288.818 410.638 291.256 410.638 293.688 410.638V327.674H298.161V410.545C300.583 410.545 302.99 410.358 305.412 410.234V327.674H309.9V409.939C312.323 409.752 314.729 409.55 317.121 409.301V327.674H321.64V408.804C324.047 408.524 326.453 408.198 328.829 407.856V327.674H333.395V407.141C335.802 406.753 338.193 406.317 340.569 405.851V327.674H345.134V404.872C347.541 404.344 349.917 403.8 352.277 403.209V327.674H356.936V402.059C359.327 401.406 361.703 400.707 364.063 399.992V327.674H368.722V398.5C371.113 397.707 373.489 396.945 375.818 395.982V327.674H380.477V394.163C382.868 393.184 385.229 392.174 387.558 391.055V327.674H392.216V388.895C394.629 387.693 396.984 386.455 399.282 385.18V327.674H403.94V382.46C406.394 380.968 408.744 379.44 410.99 377.875V327.674H415.649V374.456C418.133 372.539 420.473 370.591 422.668 368.612V327.674H427.326V364.058C429.833 361.474 432.167 358.728 434.314 355.837V327.674H438.988V348.641C442.271 343.031 444.625 336.927 445.96 330.565V299.854L443.165 299.838Z" fill="url(#paint19_linear_1_535)"/>
<path d="M289.961 390.636C376.708 390.636 447.031 349.998 447.031 299.87C447.031 249.741 376.708 209.104 289.961 209.104C203.213 209.104 132.891 249.741 132.891 299.87C132.891 349.998 203.213 390.636 289.961 390.636Z" fill="url(#paint20_linear_1_535)"/>
<path opacity="0.3" d="M290.023 209.041C254.432 209.041 218.841 215.989 189.865 229.868L143 331.824C150.64 343.558 162.581 354.547 178.902 363.981C189.434 369.983 200.554 374.889 212.086 378.621L290.023 209.041Z" fill="#91A2FA"/>
<path opacity="0.3" d="M334.03 212.74L253.406 388.149C272.889 390.797 292.602 391.318 312.197 389.703L386.407 228.236C369.679 220.858 352.078 215.65 334.03 212.74Z" fill="#91A2FA"/>
<g opacity="0.05">
<path opacity="0.05" d="M289.961 380.254C366.786 380.254 429.065 344.265 429.065 299.87C429.065 255.475 366.786 219.486 289.961 219.486C213.136 219.486 150.857 255.475 150.857 299.87C150.857 344.265 213.136 380.254 289.961 380.254Z" fill="url(#paint21_linear_1_535)"/>
<g opacity="0.05">
<path opacity="0.05" d="M41.4907 299.528L40 298.658L282.337 158.623L283.828 159.493L41.4907 299.528Z" fill="#91A2FA"/>
<path opacity="0.05" d="M45.7608 301.983L44.27 301.128L286.607 161.094L288.098 161.949L45.7608 301.983Z" fill="#91A2FA"/>
<path opacity="0.05" d="M50.0317 304.455L48.541 303.6L290.878 163.566L292.369 164.42L50.0317 304.455Z" fill="#91A2FA"/>
<path opacity="0.05" d="M54.3018 306.926L52.811 306.071L295.148 166.037L296.639 166.891L54.3018 306.926Z" fill="#91A2FA"/>
<path opacity="0.05" d="M58.5723 309.397L57.0815 308.527L299.418 168.492L300.909 169.363L58.5723 309.397Z" fill="#91A2FA"/>
<path opacity="0.05" d="M62.8423 311.853L61.3516 310.998L303.688 170.963L305.179 171.818L62.8423 311.853Z" fill="#91A2FA"/>
<path opacity="0.05" d="M67.1128 314.324L65.6221 313.469L307.959 173.434L309.434 174.289L67.1128 314.324Z" fill="#91A2FA"/>
<path opacity="0.05" d="M71.3833 316.795L69.8926 315.94L312.229 175.906L313.705 176.761L71.3833 316.795Z" fill="#91A2FA"/>
<path opacity="0.05" d="M75.6533 319.267L74.1626 318.396L316.499 178.362L317.975 179.217L75.6533 319.267Z" fill="#91A2FA"/>
<path opacity="0.05" d="M79.9238 321.722L78.4331 320.867L320.77 180.833L322.245 181.688L79.9238 321.722Z" fill="#91A2FA"/>
<path opacity="0.05" d="M84.1783 324.193L82.7031 323.338L325.04 183.304L326.515 184.159L84.1783 324.193Z" fill="#91A2FA"/>
<path opacity="0.05" d="M88.4488 326.664L86.9736 325.81L329.311 185.775L330.786 186.63L88.4488 326.664Z" fill="#91A2FA"/>
<path opacity="0.05" d="M92.7193 329.12L91.2441 328.265L333.581 188.23L335.056 189.085L92.7193 329.12Z" fill="#91A2FA"/>
<path opacity="0.05" d="M96.9898 331.591L95.5146 330.736L337.852 190.702L339.327 191.557L96.9898 331.591Z" fill="#91A2FA"/>
<path opacity="0.05" d="M101.26 334.062L99.7847 333.207L342.122 193.173L343.597 194.028L101.26 334.062Z" fill="#91A2FA"/>
<path opacity="0.05" d="M105.531 336.533L104.04 335.679L346.377 195.629L347.868 196.499L105.531 336.533Z" fill="#91A2FA"/>
<path opacity="0.05" d="M109.801 339.005L108.31 338.135L350.647 198.1L352.138 198.955L109.801 339.005Z" fill="#91A2FA"/>
<path opacity="0.05" d="M114.071 341.461L112.581 340.606L354.917 200.572L356.408 201.426L114.071 341.461Z" fill="#91A2FA"/>
<path opacity="0.05" d="M118.341 343.932L116.851 343.077L359.187 203.042L360.678 203.897L118.341 343.932Z" fill="#91A2FA"/>
<path opacity="0.05" d="M122.612 346.403L121.121 345.533L363.458 205.498L364.949 206.368L122.612 346.403Z" fill="#91A2FA"/>
<path opacity="0.05" d="M126.882 348.858L125.392 348.003L367.728 207.969L369.219 208.824L126.882 348.858Z" fill="#91A2FA"/>
<path opacity="0.05" d="M131.152 351.33L129.662 350.475L371.998 210.44L373.489 211.295L131.152 351.33Z" fill="#91A2FA"/>
<path opacity="0.05" d="M135.423 353.801L133.932 352.946L376.269 212.912L377.76 213.767L135.423 353.801Z" fill="#91A2FA"/>
<path opacity="0.05" d="M139.693 356.272L138.202 355.417L380.539 215.367L382.03 216.238L139.693 356.272Z" fill="#91A2FA"/>
<path opacity="0.05" d="M143.963 358.727L142.473 357.873L384.81 217.838L386.3 218.693L143.963 358.727Z" fill="#91A2FA"/>
<path opacity="0.05" d="M148.234 361.198L146.743 360.344L389.08 220.309L390.555 221.164L148.234 361.198Z" fill="#91A2FA"/>
<path opacity="0.05" d="M152.504 363.67L151.014 362.815L393.351 222.781L394.826 223.635L152.504 363.67Z" fill="#91A2FA"/>
<path opacity="0.05" d="M156.759 366.141L155.284 365.271L397.621 225.236L399.096 226.107L156.759 366.141Z" fill="#91A2FA"/>
<path opacity="0.05" d="M161.029 368.597L159.554 367.742L401.891 227.708L403.366 228.562L161.029 368.597Z" fill="#91A2FA"/>
<path opacity="0.05" d="M165.299 371.068L163.824 370.213L406.161 230.178L407.636 231.033L165.299 371.068Z" fill="#91A2FA"/>
<path opacity="0.05" d="M169.57 373.539L168.095 372.684L410.432 232.649L411.907 233.504L169.57 373.539Z" fill="#91A2FA"/>
<path opacity="0.05" d="M173.84 376.01L172.365 375.14L414.702 235.106L416.177 235.961L173.84 376.01Z" fill="#91A2FA"/>
<path opacity="0.05" d="M178.11 378.466L176.635 377.611L418.957 237.577L420.447 238.431L178.11 378.466Z" fill="#91A2FA"/>
<path opacity="0.05" d="M182.38 380.937L180.905 380.083L423.242 240.048L424.717 240.903L182.38 380.937Z" fill="#91A2FA"/>
<path opacity="0.05" d="M186.651 383.409L185.176 382.554L427.497 242.504L428.988 243.374L186.651 383.409Z" fill="#91A2FA"/>
<path opacity="0.05" d="M190.921 385.88L189.446 385.009L431.768 244.975L433.258 245.845L190.921 385.88Z" fill="#91A2FA"/>
<path opacity="0.05" d="M195.192 388.335L193.701 387.48L436.038 247.446L437.529 248.301L195.192 388.335Z" fill="#91A2FA"/>
<path opacity="0.05" d="M199.462 390.807L197.972 389.952L440.309 249.918L441.799 250.773L199.462 390.807Z" fill="#91A2FA"/>
<path opacity="0.05" d="M203.733 393.278L202.242 392.423L444.579 252.373L446.07 253.243L203.733 393.278Z" fill="#91A2FA"/>
<path opacity="0.05" d="M208.002 395.749L206.512 394.879L448.849 254.844L450.339 255.715L208.002 395.749Z" fill="#91A2FA"/>
<path opacity="0.05" d="M212.273 398.204L210.782 397.35L453.119 257.315L454.61 258.17L212.273 398.204Z" fill="#91A2FA"/>
<path opacity="0.05" d="M216.544 400.675L215.054 399.821L457.391 259.786L458.881 260.641L216.544 400.675Z" fill="#91A2FA"/>
<path opacity="0.05" d="M220.814 403.147L219.323 402.293L461.66 262.258L463.151 263.113L220.814 403.147Z" fill="#91A2FA"/>
<path opacity="0.05" d="M225.084 405.619L223.594 404.748L465.931 264.714L467.421 265.569L225.084 405.619Z" fill="#91A2FA"/>
<path opacity="0.05" d="M229.355 408.074L227.864 407.219L470.201 267.185L471.692 268.04L229.355 408.074Z" fill="#91A2FA"/>
<path opacity="0.05" d="M233.626 410.545L232.135 409.69L474.472 269.656L475.962 270.511L233.626 410.545Z" fill="#91A2FA"/>
<path opacity="0.05" d="M237.895 413.016L236.404 412.161L478.741 272.111L480.232 272.982L237.895 413.016Z" fill="#91A2FA"/>
<path opacity="0.05" d="M242.166 415.472L240.675 414.617L483.012 274.582L484.487 275.437L242.166 415.472Z" fill="#91A2FA"/>
<path opacity="0.05" d="M246.436 417.943L244.945 417.089L487.282 277.054L488.757 277.909L246.436 417.943Z" fill="#91A2FA"/>
<path opacity="0.05" d="M250.69 420.414L249.215 419.56L491.552 279.525L493.027 280.38L250.69 420.414Z" fill="#91A2FA"/>
<path opacity="0.05" d="M254.961 422.886L253.485 422.031L495.822 281.981L497.297 282.851L254.961 422.886Z" fill="#91A2FA"/>
<path opacity="0.05" d="M259.232 425.341L257.757 424.486L500.094 284.452L501.569 285.307L259.232 425.341Z" fill="#91A2FA"/>
<path opacity="0.05" d="M263.503 427.812L262.027 426.957L504.364 286.923L505.839 287.778L263.503 427.812Z" fill="#91A2FA"/>
<path opacity="0.05" d="M267.772 430.284L266.297 429.429L508.634 289.395L510.109 290.25L267.772 430.284Z" fill="#91A2FA"/>
<path opacity="0.05" d="M272.042 432.755L270.551 431.885L512.888 291.851L514.378 292.721L272.042 432.755Z" fill="#91A2FA"/>
<path opacity="0.05" d="M276.312 435.211L274.821 434.356L517.158 294.321L518.649 295.176L276.312 435.211Z" fill="#91A2FA"/>
<path opacity="0.05" d="M280.583 437.681L279.092 436.827L521.429 296.792L522.919 297.647L280.583 437.681Z" fill="#91A2FA"/>
<path opacity="0.05" d="M284.852 440.153L283.361 439.298L525.698 299.264L527.189 300.118L284.852 440.153Z" fill="#91A2FA"/>
<path opacity="0.05" d="M289.123 442.623L287.632 441.753L529.969 301.719L531.459 302.589L289.123 442.623Z" fill="#91A2FA"/>
<path opacity="0.05" d="M293.393 445.08L291.902 444.225L534.239 304.191L535.73 305.046L293.393 445.08Z" fill="#91A2FA"/>
<path opacity="0.05" d="M297.663 447.551L296.172 446.696L538.509 306.662L539.999 307.517L297.663 447.551Z" fill="#91A2FA"/>
</g>
</g>
<path d="M191.605 248.441C245.954 217.062 334 217.062 388.334 248.441C414.298 263.455 427.839 282.913 428.988 302.574C430.23 281.111 416.689 259.414 388.334 243.032C333.985 211.637 245.923 211.637 191.605 243.032C163.25 259.414 149.678 281.111 150.951 302.574C152.1 282.913 165.688 263.439 191.605 248.441Z" fill="url(#paint22_linear_1_535)"/>
<path d="M332.96 282.851C324.677 282.116 316.343 283.512 308.751 286.907C318.068 279.136 315.92 271.194 302.307 263.081L301.297 262.491C296.882 259.858 292.142 257.815 287.198 256.414C282.518 255.049 277.676 254.322 272.803 254.253C268.15 254.283 263.518 254.889 259.013 256.056C256.498 256.699 254.096 257.414 251.808 258.201L243.05 253.134L230.162 260.579L237.367 264.76C236.093 265.444 234.805 266.159 233.485 266.92L228.826 269.656L221.683 265.521L208.794 272.966L215.938 277.1L207.04 282.245L203.561 284.265L202.614 284.794L187.831 293.342L200.72 300.802L215.503 292.254L308.394 345.967L293.595 354.516L306.484 361.96L321.282 353.412L325.708 350.863L334.606 345.719L341.873 349.915L354.762 342.47L350.103 339.813L347.448 338.258L356.004 333.316L363.271 337.512L376.16 330.068L371.501 327.41L367.806 325.265C372.883 320.836 375.57 316.36 375.912 311.852C376.284 305.117 370.694 298.383 359.141 291.648L358.364 291.181C350.589 286.617 341.926 283.776 332.96 282.851ZM246.435 279.836L250.581 277.427C260.851 271.5 270.686 271.241 280.086 276.65C285.583 279.758 288.564 282.726 289.076 285.353C289.589 287.98 287.011 290.933 281.312 294.197L276.297 297.087L246.435 279.836ZM329.233 327.674L293.564 307.112L298.72 304.128C303.621 301.02 309.316 299.401 315.118 299.465C320.232 299.714 326.133 301.786 332.82 305.682C338.783 309.133 342.003 312.319 342.479 315.241C342.96 318.162 340.351 321.271 334.715 324.566L329.233 327.674Z" fill="url(#paint23_linear_1_535)"/>
<path d="M208.717 262.506V270.775L215.86 266.641L208.717 262.506Z" fill="url(#paint24_linear_1_535)"/>
<path d="M230.161 250.119V258.388L237.366 254.3L230.161 250.119Z" fill="url(#paint25_linear_1_535)"/>
<path d="M314.45 266.656V276.478L307.99 272.515L314.45 266.656Z" fill="url(#paint26_linear_1_535)"/>
<path d="M375.99 299.87V311.868L366.3 305.869L375.99 299.87Z" fill="url(#paint27_linear_1_535)"/>
<path d="M332.96 272.391C324.677 271.657 316.343 273.053 308.751 276.448C318.068 268.677 315.92 260.73 302.307 252.606L301.297 252.031C296.882 249.399 292.142 247.356 287.198 245.954C282.52 244.582 277.677 243.855 272.803 243.794C268.15 243.824 263.518 244.429 259.013 245.597C256.498 246.229 254.096 246.944 251.808 247.742L243.05 242.675L230.162 250.119L237.367 254.3C236.093 254.984 234.805 255.699 233.485 256.461L228.826 259.196L221.683 255.062L208.794 262.507L215.938 266.641L207.04 271.785L203.561 273.79L202.614 274.334L187.831 282.882L200.72 290.342L215.503 281.794L308.472 335.508L293.673 344.056L306.562 351.501L321.36 342.953L325.786 340.404L334.684 335.259L341.951 339.456L354.839 332.011L350.181 329.353L347.526 327.799L356.082 322.857L363.349 327.053L376.238 319.608L371.579 316.951L367.883 314.806C372.961 310.376 375.648 305.9 375.989 301.393C376.362 294.658 370.772 287.923 359.218 281.188L358.442 280.737C350.648 276.15 341.956 273.303 332.96 272.391ZM246.435 269.376L250.581 266.967C260.851 261.04 270.686 260.781 280.086 266.19C285.583 269.298 288.564 272.267 289.077 274.894C289.589 277.52 287.011 280.473 281.312 283.737L276.297 286.628L246.435 269.376ZM329.233 317.215L293.626 296.653L298.782 293.668C303.683 290.561 309.378 288.941 315.18 289.006C320.294 289.255 326.195 291.327 332.882 295.223C338.845 298.673 342.065 301.859 342.541 304.781C343.022 307.703 340.414 310.811 334.777 314.106L329.233 317.215Z" fill="url(#paint28_linear_1_535)"/>
<path d="M376.206 319.624V330.083L363.317 337.528V327.068L376.206 319.624Z" fill="url(#paint29_linear_1_535)"/>
<path d="M354.762 332.011V342.471L341.873 349.915V339.455L354.762 332.011Z" fill="url(#paint30_linear_1_535)"/>
<path d="M306.498 351.501V361.961L293.594 354.516V344.056L306.498 351.501Z" fill="url(#paint31_linear_1_535)"/>
<path d="M187.754 282.882V293.357L200.643 300.802V290.342L187.754 282.882Z" fill="url(#paint32_linear_1_535)"/>
<path d="M215.425 292.254V281.794L200.642 290.342V300.802L215.425 292.254Z" fill="url(#paint33_linear_1_535)"/>
<path d="M215.424 281.794V292.254L299.34 340.745L308.393 335.508L215.424 281.794Z" fill="url(#paint34_linear_1_535)"/>
<path d="M291.887 224.226C286.404 224.34 280.983 223.045 276.141 220.465C271.762 217.947 269.355 214.528 269.355 210.86C269.355 207.192 271.762 203.788 276.141 201.255C284.822 196.25 298.953 196.25 307.649 201.255C312.012 203.788 314.419 207.208 314.419 210.86C314.419 214.512 312.012 217.947 307.649 220.465C302.802 223.045 297.376 224.34 291.887 224.226ZM291.887 199.203C286.702 199.108 281.578 200.333 276.995 202.762C273.191 204.969 271.095 207.845 271.095 210.86C271.095 213.875 273.191 216.766 277.011 218.973C285.21 223.713 298.564 223.713 306.779 218.973C310.583 216.766 312.695 213.891 312.695 210.86C312.695 207.829 310.583 204.969 306.779 202.762C302.197 200.331 297.072 199.106 291.887 199.203Z" fill="#91A2FA"/>
<path d="M301.22 216.253C298.334 217.722 295.142 218.487 291.903 218.487C288.665 218.487 285.473 217.722 282.586 216.253C277.431 213.284 277.431 208.482 282.586 205.482C285.473 204.014 288.665 203.248 291.903 203.248C295.142 203.248 298.334 204.014 301.22 205.482C306.36 208.451 306.36 213.284 301.22 216.253Z" fill="#97A6FC"/>
<path d="M346.282 184.764L337.043 179.433L352.773 170.341L362.028 175.672L346.282 184.764Z" fill="#91A2FA"/>
<path opacity="0.8" d="M329.667 176.341L318.021 172.906L328.13 161.452L339.776 164.886L329.667 176.341Z" fill="#91A2FA"/>
<path opacity="0.6" d="M309.357 171.274L296.453 170.093L299.931 157.395L312.836 158.576L309.357 171.274Z" fill="#91A2FA"/>
<path opacity="0.4" d="M287.337 170.093L274.417 171.274L270.938 158.576L283.843 157.395L287.337 170.093Z" fill="#91A2FA"/>
<path opacity="0.2" d="M265.753 172.906L254.106 176.341L244.013 164.871L255.643 161.452L265.753 172.906Z" fill="#91A2FA"/>
<path opacity="0.1" d="M246.73 179.433L237.49 184.764L221.76 175.672L230.999 170.341L246.73 179.433Z" fill="#91A2FA"/>
<path opacity="0.2" d="M315.444 199.141L312.198 197.26L335.677 183.692L338.923 185.572L315.444 199.141Z" fill="#91A2FA"/>
<path opacity="0.4" d="M308.006 195.504L303.922 194.292L319 177.195L323.084 178.408L308.006 195.504Z" fill="#91A2FA"/>
<path opacity="0.6" d="M299.015 193.375L294.48 192.955L299.667 174.01L304.201 174.429L299.015 193.375Z" fill="#91A2FA"/>
<path opacity="0.8" d="M289.31 192.955L284.775 193.375L279.573 174.429L284.108 174.01L289.31 192.955Z" fill="#91A2FA"/>
<path d="M279.853 194.292L275.769 195.504L260.69 178.408L264.79 177.195L279.853 194.292Z" fill="#91A2FA"/>
<path d="M271.591 197.26L268.345 199.141L244.866 185.572L248.112 183.692L271.591 197.26Z" fill="#91A2FA"/>
<path d="M265.302 201.55L263.221 203.912L233.64 195.193L235.72 192.831L265.302 201.55Z" fill="#91A2FA"/>
<path d="M261.621 206.756L260.906 209.367L228.11 206.368L228.825 203.741L261.621 206.756Z" fill="#91A2FA"/>
<path d="M260.906 212.352L261.621 214.978L228.825 217.978L228.11 215.351L260.906 212.352Z" fill="#91A2FA"/>
<path d="M263.221 217.823L265.302 220.185L235.72 228.889L233.64 226.526L263.221 217.823Z" fill="#91A2FA"/>
<path d="M268.345 222.594L271.591 224.475L248.112 238.043L244.866 236.162L268.345 222.594Z" fill="#91A2FA"/>
<path opacity="0.6" d="M384.11 166.813C418.63 190.872 420.556 225.267 389.934 250.507L402.356 261.962C444.609 231.531 443.677 187.717 399.608 157.83L384.11 166.813Z" fill="#97A6FC"/>
<path opacity="0.2" d="M310.568 279.168C274.061 282.478 235.395 276.059 207.273 259.771C201.132 256.279 195.403 252.109 190.192 247.338L169.12 251.534C175.899 258.206 183.527 263.954 191.807 268.63C227.382 289.177 277.213 296.482 322.898 290.56L310.568 279.168Z" fill="#91A2FA"/>
<path d="M151.852 222.47L172.924 218.274C169.197 198.193 180.688 177.351 207.273 161.964C251.311 136.522 321.112 135.061 368.132 157.566L383.583 148.645C328.006 121.229 244.401 122.689 191.853 153.059C159.103 171.974 145.78 197.867 151.852 222.47Z" fill="#97A6FC"/>
<path d="M278.983 256.585L270.737 251.829L376.61 190.64L384.856 195.396L278.983 256.585Z" fill="#97A6FC"/>
<path opacity="0.8" d="M290.691 263.361L282.445 258.59L328.472 231.997L336.717 236.768L290.691 263.361Z" fill="#97A6FC"/>
<path opacity="0.6" d="M303.223 270.604L294.978 265.832L368.241 223.511L376.486 228.267L303.223 270.604Z" fill="#97A6FC"/>
<path opacity="0.2" d="M315.568 277.722L307.307 272.966L364.343 240.017L372.588 244.773L315.568 277.722Z" fill="#97A6FC"/>
<defs>
<linearGradient id="paint0_linear_1_535" x1="513.95" y1="495.116" x2="593.266" y2="540.884" gradientUnits="userSpaceOnUse">
<stop stop-color="#BCBEFF"/>
<stop offset="0.23" stop-color="#AAADF8"/>
<stop offset="0.68" stop-color="#7C83E5"/>
<stop offset="1" stop-color="#5761D7"/>
</linearGradient>
<linearGradient id="paint1_linear_1_535" x1="504.002" y1="512.437" x2="603.935" y2="512.437" gradientUnits="userSpaceOnUse">
<stop stop-color="#E9E9FD"/>
<stop offset="0.36" stop-color="#D3D2F9"/>
<stop offset="0.71" stop-color="#C5C4F7"/>
<stop offset="1" stop-color="#C0BFF6"/>
</linearGradient>
<linearGradient id="paint2_linear_1_535" x1="52360" y1="9493.62" x2="54111.4" y2="12036" gradientUnits="userSpaceOnUse">
<stop stop-color="#BCBEFF"/>
<stop offset="0.23" stop-color="#AAADF8"/>
<stop offset="0.68" stop-color="#7C83E5"/>
<stop offset="1" stop-color="#5761D7"/>
</linearGradient>
<linearGradient id="paint3_linear_1_535" x1="51817" y1="14040.8" x2="56956.7" y2="14040.8" gradientUnits="userSpaceOnUse">
<stop stop-color="#E9E9FD"/>
<stop offset="0.36" stop-color="#D3D2F9"/>
<stop offset="0.71" stop-color="#C5C4F7"/>
<stop offset="1" stop-color="#C0BFF6"/>
</linearGradient>
<linearGradient id="paint4_linear_1_535" x1="364.959" y1="418.479" x2="535.052" y2="418.479" gradientUnits="userSpaceOnUse">
<stop stop-color="#5778FF"/>
<stop offset="0.1042" stop-color="#567FFF"/>
<stop offset="0.2607" stop-color="#5394FF"/>
<stop offset="0.4503" stop-color="#4DB6FF"/>
<stop offset="0.6638" stop-color="#46E4FF"/>
<stop offset="0.7742" stop-color="#42FFFF"/>
</linearGradient>
<linearGradient id="paint5_linear_1_535" x1="43049.8" y1="11806.4" x2="44801.1" y2="14348.9" gradientUnits="userSpaceOnUse">
<stop stop-color="#BCBEFF"/>
<stop offset="0.23" stop-color="#AAADF8"/>
<stop offset="0.68" stop-color="#7C83E5"/>
<stop offset="1" stop-color="#5761D7"/>
</linearGradient>
<linearGradient id="paint6_linear_1_535" x1="42531.6" y1="17404.7" x2="47674.8" y2="17404.7" gradientUnits="userSpaceOnUse">
<stop stop-color="#E9E9FD"/>
<stop offset="0.36" stop-color="#D3D2F9"/>
<stop offset="0.71" stop-color="#C5C4F7"/>
<stop offset="1" stop-color="#C0BFF6"/>
</linearGradient>
<linearGradient id="paint7_linear_1_535" x1="43049.8" y1="10457.5" x2="44800.6" y2="12999.3" gradientUnits="userSpaceOnUse">
<stop stop-color="#BCBEFF"/>
<stop offset="0.23" stop-color="#AAADF8"/>
<stop offset="0.68" stop-color="#7C83E5"/>
<stop offset="1" stop-color="#5761D7"/>
</linearGradient>
<linearGradient id="paint8_linear_1_535" x1="42531.6" y1="15468.9" x2="47674.8" y2="15468.9" gradientUnits="userSpaceOnUse">
<stop stop-color="#E9E9FD"/>
<stop offset="0.36" stop-color="#D3D2F9"/>
<stop offset="0.71" stop-color="#C5C4F7"/>
<stop offset="1" stop-color="#C0BFF6"/>
</linearGradient>
<linearGradient id="paint9_linear_1_535" x1="224.231" y1="434.7" x2="54.1412" y2="435.704" gradientUnits="userSpaceOnUse">
<stop stop-color="#5778FF"/>
<stop offset="0.1042" stop-color="#567FFF"/>
<stop offset="0.2607" stop-color="#5394FF"/>
<stop offset="0.4503" stop-color="#4DB6FF"/>
<stop offset="0.6638" stop-color="#46E4FF"/>
<stop offset="0.7742" stop-color="#42FFFF"/>
</linearGradient>
<linearGradient id="paint10_linear_1_535" x1="26610.7" y1="5126.86" x2="28362.1" y2="7667.14" gradientUnits="userSpaceOnUse">
<stop stop-color="#BCBEFF"/>
<stop offset="0.23" stop-color="#AAADF8"/>
<stop offset="0.68" stop-color="#7C83E5"/>
<stop offset="1" stop-color="#5761D7"/>
</linearGradient>
<linearGradient id="paint11_linear_1_535" x1="26074.4" y1="7865.77" x2="31208.5" y2="7865.77" gradientUnits="userSpaceOnUse">
<stop stop-color="#E9E9FD"/>
<stop offset="0.36" stop-color="#D3D2F9"/>
<stop offset="0.71" stop-color="#C5C4F7"/>
<stop offset="1" stop-color="#C0BFF6"/>
</linearGradient>
<linearGradient id="paint12_linear_1_535" x1="26610.7" y1="3913.11" x2="28367.1" y2="6455.26" gradientUnits="userSpaceOnUse">
<stop stop-color="#BCBEFF"/>
<stop offset="0.23" stop-color="#AAADF8"/>
<stop offset="0.68" stop-color="#7C83E5"/>
<stop offset="1" stop-color="#5761D7"/>
</linearGradient>
<linearGradient id="paint13_linear_1_535" x1="517.702" y1="81.8537" x2="588.41" y2="122.638" gradientUnits="userSpaceOnUse">
<stop offset="0.24" stop-color="#5761D7"/>
<stop offset="0.39" stop-color="#7A82E5"/>
<stop offset="0.55" stop-color="#979CF0"/>
<stop offset="0.7" stop-color="#ACAFF8"/>
<stop offset="0.85" stop-color="#B8BAFD"/>
<stop offset="1" stop-color="#BCBEFF"/>
</linearGradient>
<linearGradient id="paint14_linear_1_535" x1="26099.3" y1="6115.71" x2="31238.3" y2="6115.71" gradientUnits="userSpaceOnUse">
<stop stop-color="#E9E9FD"/>
<stop offset="0.36" stop-color="#D3D2F9"/>
<stop offset="0.71" stop-color="#C5C4F7"/>
<stop offset="1" stop-color="#C0BFF6"/>
</linearGradient>
<linearGradient id="paint15_linear_1_535" x1="25381.1" y1="5928.93" x2="30207.3" y2="5928.93" gradientUnits="userSpaceOnUse">
<stop stop-color="#E9E9FD"/>
<stop offset="0.36" stop-color="#D3D2F9"/>
<stop offset="0.71" stop-color="#C5C4F7"/>
<stop offset="1" stop-color="#C0BFF6"/>
</linearGradient>
<linearGradient id="paint16_linear_1_535" x1="411.839" y1="276.499" x2="496.886" y2="129.194" gradientUnits="userSpaceOnUse">
<stop stop-color="#5778FF"/>
<stop offset="0.1042" stop-color="#567FFF"/>
<stop offset="0.2607" stop-color="#5394FF"/>
<stop offset="0.4503" stop-color="#4DB6FF"/>
<stop offset="0.6638" stop-color="#46E4FF"/>
<stop offset="0.7742" stop-color="#42FFFF"/>
</linearGradient>
<linearGradient id="paint17_linear_1_535" x1="99913" y1="-16232.8" x2="118875" y2="14554.1" gradientUnits="userSpaceOnUse">
<stop stop-color="#35068C"/>
<stop offset="0.02" stop-color="#40DDDA"/>
<stop offset="0.09" stop-color="#3AAEC0"/>
<stop offset="0.17" stop-color="#3484A9"/>
<stop offset="0.26" stop-color="#2F6195"/>
<stop offset="0.35" stop-color="#2B4486"/>
<stop offset="0.44" stop-color="#282E79"/>
<stop offset="0.54" stop-color="#261E71"/>
<stop offset="0.66" stop-color="#24156C"/>
<stop offset="0.82" stop-color="#24126A"/>
</linearGradient>
<linearGradient id="paint18_linear_1_535" x1="109.179" y1="327.675" x2="420.214" y2="327.675" gradientUnits="userSpaceOnUse">
<stop stop-color="#3671E9"/>
<stop offset="0.15" stop-color="#91A2FA"/>
<stop offset="0.33" stop-color="#8B97F1"/>
<stop offset="0.52" stop-color="#7366C8"/>
<stop offset="0.72" stop-color="#654CB3"/>
<stop offset="0.93" stop-color="#4127A7"/>
<stop offset="1" stop-color="#260672"/>
</linearGradient>
<linearGradient id="paint19_linear_1_535" x1="22161.8" y1="45078.4" x2="84817.2" y2="45078.4" gradientUnits="userSpaceOnUse">
<stop stop-color="#42E8E0"/>
<stop offset="0.15" stop-color="#43E3E0"/>
<stop offset="0.33" stop-color="#45D5DF"/>
<stop offset="0.52" stop-color="#49BDDD"/>
<stop offset="0.72" stop-color="#4E9CDB"/>
<stop offset="0.93" stop-color="#5472D8"/>
<stop offset="1" stop-color="#5761D7"/>
</linearGradient>
<linearGradient id="paint20_linear_1_535" x1="102648" y1="-22276.8" x2="121610" y2="8510.16" gradientUnits="userSpaceOnUse">
<stop stop-color="#654CB2"/>
<stop offset="0.02" stop-color="#40DDDA"/>
<stop offset="0.09" stop-color="#3AAEC0"/>
<stop offset="0.17" stop-color="#3484A9"/>
<stop offset="0.26" stop-color="#2F6195"/>
<stop offset="0.35" stop-color="#2B4486"/>
<stop offset="0.44" stop-color="#282E79"/>
<stop offset="0.54" stop-color="#261E71"/>
<stop offset="0.66" stop-color="#24156C"/>
<stop offset="0.82" stop-color="#24126A"/>
</linearGradient>
<linearGradient id="paint21_linear_1_535" x1="265.442" y1="177.227" x2="343.293" y2="565.925" gradientUnits="userSpaceOnUse">
<stop stop-color="#42E8E0"/>
<stop offset="0.02" stop-color="#40DDDA"/>
<stop offset="0.09" stop-color="#3AAEC0"/>
<stop offset="0.17" stop-color="#3484A9"/>
<stop offset="0.26" stop-color="#2F6195"/>
<stop offset="0.35" stop-color="#2B4486"/>
<stop offset="0.44" stop-color="#282E79"/>
<stop offset="0.54" stop-color="#261E71"/>
<stop offset="0.66" stop-color="#24156C"/>
<stop offset="0.82" stop-color="#24126A"/>
</linearGradient>
<linearGradient id="paint22_linear_1_535" x1="150.873" y1="261.03" x2="429.065" y2="261.03" gradientUnits="userSpaceOnUse">
<stop stop-color="#2B237C"/>
<stop offset="1" stop-color="#180D5B"/>
</linearGradient>
<linearGradient id="paint23_linear_1_535" x1="20001.9" y1="28371.6" x2="42857.5" y2="28371.6" gradientUnits="userSpaceOnUse">
<stop stop-color="#2B237C"/>
<stop offset="1" stop-color="#180D5B"/>
</linearGradient>
<linearGradient id="paint24_linear_1_535" x1="1070.96" y1="2150.27" x2="1075.07" y2="2209.98" gradientUnits="userSpaceOnUse">
<stop stop-color="#2B237D"/>
<stop offset="0.02" stop-color="#40DDDA"/>
<stop offset="0.09" stop-color="#3AAEC0"/>
<stop offset="0.17" stop-color="#3484A9"/>
<stop offset="0.26" stop-color="#2F6195"/>
<stop offset="0.35" stop-color="#2B4486"/>
<stop offset="0.44" stop-color="#282E79"/>
<stop offset="0.54" stop-color="#261E71"/>
<stop offset="0.66" stop-color="#24156C"/>
<stop offset="0.82" stop-color="#24126A"/>
</linearGradient>
<linearGradient id="paint25_linear_1_535" x1="1199.55" y1="2071.98" x2="1203.53" y2="2131.7" gradientUnits="userSpaceOnUse">
<stop stop-color="#2C247E"/>
<stop offset="0.02" stop-color="#40DDDA"/>
<stop offset="0.09" stop-color="#3AAEC0"/>
<stop offset="0.17" stop-color="#3484A9"/>
<stop offset="0.26" stop-color="#2F6195"/>
<stop offset="0.35" stop-color="#2B4486"/>
<stop offset="0.44" stop-color="#282E79"/>
<stop offset="0.54" stop-color="#261E71"/>
<stop offset="0.66" stop-color="#24156C"/>
<stop offset="0.82" stop-color="#24126A"/>
</linearGradient>
<linearGradient id="paint26_linear_1_535" x1="1500.15" y1="2536.07" x2="1507.74" y2="2620.26" gradientUnits="userSpaceOnUse">
<stop stop-color="#2B237C"/>
<stop offset="1" stop-color="#180D5B"/>
</linearGradient>
<linearGradient id="paint27_linear_1_535" x1="2503.47" y1="3372.33" x2="2587.26" y2="3386.55" gradientUnits="userSpaceOnUse">
<stop stop-color="#2B237C"/>
<stop offset="1" stop-color="#180D5B"/>
</linearGradient>
<linearGradient id="paint28_linear_1_535" x1="20982.3" y1="26254.2" x2="90746.6" y2="51565.8" gradientUnits="userSpaceOnUse">
<stop stop-color="#654DB3"/>
<stop offset="0.0899" stop-color="#40DDDA"/>
<stop offset="0.09" stop-color="#E9E9FE"/>
<stop offset="0.17" stop-color="#654DB3"/>
<stop offset="0.26" stop-color="#2F6195"/>
<stop offset="0.35" stop-color="#2B4486"/>
<stop offset="0.44" stop-color="#282E79"/>
<stop offset="0.54" stop-color="#261E71"/>
<stop offset="0.66" stop-color="#24156C"/>
<stop offset="0.82" stop-color="#24126A"/>
</linearGradient>
<linearGradient id="paint29_linear_1_535" x1="3177.8" y1="5172.83" x2="3316.46" y2="5193.76" gradientUnits="userSpaceOnUse">
<stop stop-color="#2B237C"/>
<stop offset="1" stop-color="#180D5B"/>
</linearGradient>
<linearGradient id="paint30_linear_1_535" x1="2978.49" y1="5327.92" x2="3117.15" y2="5348.85" gradientUnits="userSpaceOnUse">
<stop stop-color="#2B237C"/>
<stop offset="1" stop-color="#180D5B"/>
</linearGradient>
<linearGradient id="paint31_linear_1_535" x1="2520.2" y1="5475.32" x2="2691.03" y2="5501.14" gradientUnits="userSpaceOnUse">
<stop stop-color="#2B237C"/>
<stop offset="1" stop-color="#180D5B"/>
</linearGradient>
<linearGradient id="paint32_linear_1_535" x1="1590.94" y1="4585.31" x2="1615.03" y2="4877.35" gradientUnits="userSpaceOnUse">
<stop stop-color="#2C247D"/>
<stop offset="0.02" stop-color="#40DDDA"/>
<stop offset="0.09" stop-color="#3AAEC0"/>
<stop offset="0.17" stop-color="#3484A9"/>
<stop offset="0.26" stop-color="#2F6195"/>
<stop offset="0.35" stop-color="#2B4486"/>
<stop offset="0.44" stop-color="#282E79"/>
<stop offset="0.54" stop-color="#261E71"/>
<stop offset="0.66" stop-color="#24156C"/>
<stop offset="0.82" stop-color="#24126A"/>
</linearGradient>
<linearGradient id="paint33_linear_1_535" x1="1942.09" y1="4843.14" x2="1965.01" y2="5144.3" gradientUnits="userSpaceOnUse">
<stop stop-color="#2B237C"/>
<stop offset="1" stop-color="#180D5B"/>
</linearGradient>
<linearGradient id="paint34_linear_1_535" x1="14272.3" y1="13992.1" x2="14396.3" y2="17299.1" gradientUnits="userSpaceOnUse">
<stop stop-color="#91A2FA"/>
<stop offset="0.0199" stop-color="#91A2FA"/>
<stop offset="0.02" stop-color="#654DB3"/>
<stop offset="0.09" stop-color="#654DB3"/>
<stop offset="0.17" stop-color="#654DB3"/>
<stop offset="0.26" stop-color="#654CB3"/>
<stop offset="0.35" stop-color="#35068C"/>
<stop offset="0.44" stop-color="#35068C"/>
<stop offset="0.54" stop-color="#35068C"/>
<stop offset="0.66" stop-color="#35068C"/>
<stop offset="0.82" stop-color="#35068C"/>
</linearGradient>
</defs>
</svg>
